<mxfile host="Electron" agent="Mozilla/5.0 (Macintosh; Intel Mac OS X 10_15_7) AppleWebKit/537.36 (KHTML, like Gecko) draw.io/28.1.2 Chrome/138.0.7204.243 Electron/37.4.0 Safari/537.36" version="28.1.2">
  <diagram name="CO2-Lifecycle" id="CO2-Lifecycle-1">
    <mxGraphModel dx="1799" dy="1219" grid="1" gridSize="10" guides="1" tooltips="1" connect="1" arrows="1" fold="1" page="1" pageScale="1" pageWidth="2000" pageHeight="1400" math="0" shadow="0">
      <root>
        <mxCell id="0" />
        <mxCell id="1" parent="0" />
        <mxCell id="title" value="CO2 (Atmospheric CO2) Variable Lifecycle" style="text;html=1;strokeColor=none;fillColor=none;align=center;verticalAlign=middle;whiteSpace=wrap;rounded=0;fontSize=24;fontStyle=1" parent="1" vertex="1">
          <mxGeometry x="300" y="20" width="1400" height="40" as="geometry" />
        </mxCell>
        <mxCell id="legend-box" value="" style="rounded=1;whiteSpace=wrap;html=1;strokeColor=#666666;fillColor=none;" parent="1" vertex="1">
          <mxGeometry x="20" y="80" width="200" height="120" as="geometry" />
        </mxCell>
        <mxCell id="legend-title" value="Legend" style="text;html=1;strokeColor=none;fillColor=none;align=center;verticalAlign=middle;whiteSpace=wrap;rounded=0;fontStyle=1;fontSize=16;" parent="1" vertex="1">
          <mxGeometry x="30" y="84" width="180" height="20" as="geometry" />
        </mxCell>
        <mxCell id="legend-source" value="" style="shape=cylinder3;whiteSpace=wrap;html=1;boundedLbl=1;backgroundOutline=1;size=15;strokeWidth=2;fillColor=#dae8fc;strokeColor=#6c8ebf;" parent="1" vertex="1">
          <mxGeometry x="30" y="110" width="20" height="20" as="geometry" />
        </mxCell>
        <mxCell id="legend-source-text" value="Data Source" style="text;html=1;strokeColor=none;fillColor=none;align=left;verticalAlign=middle;whiteSpace=wrap;rounded=0;" parent="1" vertex="1">
          <mxGeometry x="60" y="110" width="140" height="20" as="geometry" />
        </mxCell>
        <mxCell id="legend-process" value="" style="rounded=1;whiteSpace=wrap;html=1;fillColor=#d5e8d4;strokeColor=#82b366;" parent="1" vertex="1">
          <mxGeometry x="30" y="140" width="20" height="20" as="geometry" />
        </mxCell>
        <mxCell id="legend-process-text" value="Process / Code" style="text;html=1;strokeColor=none;fillColor=none;align=left;verticalAlign=middle;whiteSpace=wrap;rounded=0;" parent="1" vertex="1">
          <mxGeometry x="60" y="140" width="140" height="20" as="geometry" />
        </mxCell>
        <mxCell id="legend-file" value="" style="shape=document;whiteSpace=wrap;html=1;boundedLbl=1;fillColor=#fff2cc;strokeColor=#d6b656;" parent="1" vertex="1">
          <mxGeometry x="30" y="170" width="20" height="20" as="geometry" />
        </mxCell>
        <mxCell id="legend-file-text" value="File / Artifact" style="text;html=1;strokeColor=none;fillColor=none;align=left;verticalAlign=middle;whiteSpace=wrap;rounded=0;" parent="1" vertex="1">
          <mxGeometry x="60" y="170" width="140" height="20" as="geometry" />
        </mxCell>
        <mxCell id="source-data" value="NOAA GML&lt;br&gt;&lt;b&gt;Global Mean CO2&lt;/b&gt;&lt;br&gt;(Text File)" style="shape=cylinder3;whiteSpace=wrap;html=1;boundedLbl=1;backgroundOutline=1;size=15;strokeWidth=2;fontSize=12;fontStyle=0;fillColor=#dae8fc;strokeColor=#6c8ebf;" parent="1" vertex="1">
          <mxGeometry x="80" y="460" width="180" height="80" as="geometry" />
        </mxCell>
        <mxCell id="downloader" value="noaa_downloader.py" style="rounded=1;whiteSpace=wrap;html=1;strokeWidth=2;fontSize=12;fillColor=#d5e8d4;strokeColor=#82b366;align=center;" parent="1" vertex="1">
          <mxGeometry x="340" y="460" width="180" height="80" as="geometry" />
        </mxCell>
        <mxCell id="downloaded-file" value="Downloaded Text File&lt;br&gt;&lt;b&gt;co2_mm_gl.txt&lt;/b&gt;" style="shape=document;whiteSpace=wrap;html=1;boundedLbl=1;strokeWidth=2;fontSize=12;fillColor=#fff2cc;strokeColor=#d6b656;" parent="1" vertex="1">
          <mxGeometry x="600" y="460" width="180" height="80" as="geometry" />
        </mxCell>
        <mxCell id="noaa-processor" value="NOAADownloader Workflow&lt;br&gt;(noaa_downloader.py)" style="rounded=1;whiteSpace=wrap;html=1;strokeWidth=2;fontSize=14;fontStyle=1;align=center;verticalAlign=top;fillColor=#d5e8d4;strokeColor=#82b366;" parent="1" vertex="1">
          <mxGeometry x="860" y="380" width="240" height="200" as="geometry" />
        </mxCell>
        <mxCell id="step1" value="&lt;b&gt;1. Parse Text File&lt;/b&gt;&lt;br&gt;parse_co2_data()" style="rounded=0;whiteSpace=wrap;html=1;align=center;fillColor=#e6fffa;strokeColor=#006b57;" parent="noaa-processor" vertex="1">
          <mxGeometry x="20" y="40" width="200" height="50" as="geometry" />
        </mxCell>
        <mxCell id="step2" value="&lt;b&gt;2. Spatially Replicate&lt;/b&gt;&lt;br&gt;Replicate global mean value across 0.5Â° grid" style="rounded=0;whiteSpace=wrap;html=1;align=center;fillColor=#e6fffa;strokeColor=#006b57;" parent="noaa-processor" vertex="1">
          <mxGeometry x="20" y="100" width="200" height="50" as="geometry" />
        </mxCell>
        <mxCell id="step3" value="&lt;b&gt;3. Create NetCDF&lt;/b&gt;&lt;br&gt;create_cardamom_co2_files()" style="rounded=0;whiteSpace=wrap;html=1;align=center;fillColor=#e6fffa;strokeColor=#006b57;" parent="noaa-processor" vertex="1">
          <mxGeometry x="20" y="160" width="200" height="50" as="geometry" />
        </mxCell>
        <mxCell id="sub-arrow1" value="" style="endArrow=classic;html=1;rounded=0;" parent="noaa-processor" source="step1" target="step2" edge="1">
          <mxGeometry width="50" height="50" relative="1" as="geometry">
            <mxPoint x="120" y="100" as="sourcePoint" />
            <mxPoint x="120" y="150" as="targetPoint" />
          </mxGeometry>
        </mxCell>
        <mxCell id="sub-arrow2" value="" style="endArrow=classic;html=1;rounded=0;" parent="noaa-processor" source="step2" target="step3" edge="1">
          <mxGeometry width="50" height="50" relative="1" as="geometry">
            <mxPoint x="120" y="160" as="sourcePoint" />
            <mxPoint x="120" y="210" as="targetPoint" />
          </mxGeometry>
        </mxCell>
        <mxCell id="intermediate-file" value="Processed CO2 File&lt;br&gt;&lt;b&gt;NOAA_CO2_GLOBAL_*.nc&lt;/b&gt;" style="shape=document;whiteSpace=wrap;html=1;boundedLbl=1;strokeWidth=2;fontSize=12;fillColor=#fff2cc;strokeColor=#d6b656;" parent="1" vertex="1">
          <mxGeometry x="860" y="600" width="240" height="80" as="geometry" />
        </mxCell>
        <mxCell id="cbf-processor" value="CBFMetProcessor Workflow&lt;br&gt;(cbf_met_processor.py)" style="rounded=1;whiteSpace=wrap;html=1;strokeWidth=2;fontSize=14;fontStyle=1;align=center;verticalAlign=top;fillColor=#d5e8d4;strokeColor=#82b366;" parent="1" vertex="1">
          <mxGeometry x="1180" y="320" width="400" height="445.36" as="geometry" />
        </mxCell>
        <mxCell id="cbf-step1" value="&lt;b&gt;1. Integrate External Data&lt;/b&gt;&lt;br&gt;_integrate_external_data()" style="rounded=0;whiteSpace=wrap;html=1;align=center;fillColor=#e6fffa;strokeColor=#006b57;" parent="cbf-processor" vertex="1">
          <mxGeometry x="33.333333333333336" y="61.42857142857143" width="333.33333333333337" height="76.78571428571429" as="geometry" />
        </mxCell>
        <mxCell id="cbf-decision" value="CO2 data provided?" style="rhombus;whiteSpace=wrap;html=1;fillColor=#ffe6cc;strokeColor=#d79b00;" parent="cbf-processor" vertex="1">
          <mxGeometry x="66.66666666666667" y="153.57142857142858" width="266.6666666666667" height="122.85714285714286" as="geometry" />
        </mxCell>
        <mxCell id="cbf-yes" value="&lt;b&gt;2a. Load CO2 Data&lt;/b&gt;&lt;br&gt;_load_co2_data()" style="rounded=0;whiteSpace=wrap;html=1;align=center;fillColor=#e6fffa;strokeColor=#006b57;" parent="cbf-processor" vertex="1">
          <mxGeometry x="20" y="319" width="146.67" height="61.43" as="geometry" />
        </mxCell>
        <mxCell id="cbf-no" value="&lt;b&gt;2b. Create Constant Array&lt;/b&gt;&lt;br&gt;_create_constant_co2_dataset()" style="rounded=0;whiteSpace=wrap;html=1;align=center;fillColor=#ffcccc;strokeColor=#b85450;" parent="cbf-processor" vertex="1">
          <mxGeometry x="200" y="311.31999999999994" width="176.67" height="76.79" as="geometry" />
        </mxCell>
        <mxCell id="cbf-sub-arrow1" value="" style="endArrow=classic;html=1;rounded=0;" parent="cbf-processor" source="cbf-step1" target="cbf-decision" edge="1">
          <mxGeometry width="50" height="50" relative="1" as="geometry">
            <mxPoint x="200" y="153.57142857142858" as="sourcePoint" />
            <mxPoint x="200" y="230.35714285714286" as="targetPoint" />
          </mxGeometry>
        </mxCell>
        <mxCell id="cbf-sub-arrow2" value="Yes" style="endArrow=classic;html=1;rounded=0;exitX=0.5;exitY=1;exitDx=0;exitDy=0;entryX=0.5;entryY=0;entryDx=0;entryDy=0;" parent="cbf-processor" source="cbf-decision" target="cbf-yes" edge="1">
          <mxGeometry width="50" height="50" relative="1" as="geometry">
            <mxPoint x="200" y="291.7857142857143" as="sourcePoint" />
            <mxPoint x="200" y="368.5714285714286" as="targetPoint" />
          </mxGeometry>
        </mxCell>
        <mxCell id="cbf-sub-arrow3" value="No (Fallback)" style="endArrow=classic;html=1;rounded=0;exitX=0.5;exitY=1;exitDx=0;exitDy=0;entryX=0.5;entryY=0;entryDx=0;entryDy=0;" parent="cbf-processor" source="cbf-decision" target="cbf-no" edge="1">
          <mxGeometry width="50" height="50" relative="1" as="geometry">
            <mxPoint x="200" y="399.28571428571433" as="sourcePoint" />
            <mxPoint x="200" y="476.0714285714286" as="targetPoint" />
          </mxGeometry>
        </mxCell>
        <mxCell id="cbf-file" value="Final CBF Met File&lt;br&gt;&lt;b&gt;AllMet05x05_LFmasked.nc&lt;/b&gt;&lt;br&gt;(contains &#39;CO2_2&#39;)" style="shape=document;whiteSpace=wrap;html=1;boundedLbl=1;strokeWidth=2;fontSize=12;fillColor=#fff2cc;strokeColor=#d6b656;" parent="1" vertex="1">
          <mxGeometry x="1780" y="650" width="180" height="80" as="geometry" />
        </mxCell>
        <mxCell id="erens-code" value="erens_cbf_code.py&lt;br&gt;&lt;br&gt;â¢ Renames &#39;CO2_2&#39; to &#39;CO2&#39;&lt;br&gt;â¢ Uses for photosynthesis calculations" style="shape=parallelogram;perimeter=parallelogramPerimeter;whiteSpace=wrap;html=1;fixedSize=1;strokeWidth=2;fontSize=11;fontStyle=1;fillColor=#e1d5e7;strokeColor=#9673a6;align=center;" parent="1" vertex="1">
          <mxGeometry x="1760" y="450" width="220" height="100" as="geometry" />
        </mxCell>
        <mxCell id="arrow1" value="Download" style="edgeStyle=orthogonalEdgeStyle;rounded=0;orthogonalLoop=1;jettySize=auto;html=1;endArrow=classic;endFill=1;strokeWidth=2;" parent="1" source="source-data" target="downloader" edge="1">
          <mxGeometry relative="1" as="geometry" />
        </mxCell>
        <mxCell id="arrow2" value="Create File" style="edgeStyle=orthogonalEdgeStyle;rounded=0;orthogonalLoop=1;jettySize=auto;html=1;endArrow=classic;endFill=1;strokeWidth=2;" parent="1" source="downloader" target="downloaded-file" edge="1">
          <mxGeometry relative="1" as="geometry" />
        </mxCell>
        <mxCell id="arrow3" value="Process" style="edgeStyle=orthogonalEdgeStyle;rounded=0;orthogonalLoop=1;jettySize=auto;html=1;endArrow=classic;endFill=1;strokeWidth=2;" parent="1" source="downloaded-file" target="noaa-processor" edge="1">
          <mxGeometry relative="1" as="geometry" />
        </mxCell>
        <mxCell id="arrow4" value="Write" style="edgeStyle=orthogonalEdgeStyle;rounded=0;orthogonalLoop=1;jettySize=auto;html=1;endArrow=classic;endFill=1;strokeWidth=2;" parent="1" source="noaa-processor" target="intermediate-file" edge="1">
          <mxGeometry relative="1" as="geometry" />
        </mxCell>
        <mxCell id="arrow5" value="Integrate" style="edgeStyle=orthogonalEdgeStyle;rounded=0;orthogonalLoop=1;jettySize=auto;html=1;endArrow=classic;endFill=1;strokeWidth=2;" parent="1" source="intermediate-file" target="cbf-processor" edge="1">
          <mxGeometry relative="1" as="geometry" />
        </mxCell>
        <mxCell id="arrow6" value="Write" style="edgeStyle=orthogonalEdgeStyle;rounded=0;orthogonalLoop=1;jettySize=auto;html=1;endArrow=classic;endFill=1;strokeWidth=2;" parent="1" source="cbf-processor" target="cbf-file" edge="1">
          <mxGeometry relative="1" as="geometry" />
        </mxCell>
        <mxCell id="arrow7" value="Load" style="edgeStyle=orthogonalEdgeStyle;rounded=0;orthogonalLoop=1;jettySize=auto;html=1;endArrow=classic;endFill=1;strokeWidth=2;" parent="1" source="cbf-file" target="erens-code" edge="1">
          <mxGeometry relative="1" as="geometry" />
        </mxCell>
      </root>
    </mxGraphModel>
  </diagram>
</mxfile>
